<?xml version="1.0" standalone="no"?>
<!DOCTYPE svg PUBLIC "-//W3C//DTD SVG 20010904//EN"
 "http://www.w3.org/TR/2001/REC-SVG-20010904/DTD/svg10.dtd">
<svg version="1.0" xmlns="http://www.w3.org/2000/svg"
 width="800.000000pt" height="729.000000pt" viewBox="0 0 800.000000 729.000000"
 preserveAspectRatio="xMidYMid meet">

<g transform="translate(0.000000,729.000000) scale(0.100000,-0.100000)"
fill="#000000" stroke="none">
<path d="M2263 6213 c-15 -6 -18 -43 -3 -43 5 0 13 -18 16 -40 4 -22 10 -40
15 -40 5 0 9 -43 9 -95 l0 -95 -39 0 c-22 0 -46 -7 -55 -15 -8 -8 -26 -15 -40
-15 -14 0 -26 -4 -26 -10 0 -5 -11 -12 -24 -16 -14 -3 -27 -12 -30 -20 -3 -8
-19 -14 -40 -14 -26 0 -36 -5 -41 -20 -4 -11 -15 -20 -26 -20 -11 0 -22 -6
-25 -14 -3 -8 -16 -17 -30 -20 -13 -4 -24 -11 -24 -16 0 -6 -5 -10 -11 -10 -6
0 -24 -13 -41 -30 -16 -16 -36 -30 -44 -30 -8 0 -14 -4 -14 -9 0 -5 -11 -12
-25 -15 -14 -4 -25 -11 -25 -16 0 -6 -7 -10 -15 -10 -8 0 -15 -4 -15 -10 0 -5
-11 -12 -25 -16 -14 -3 -25 -10 -25 -14 0 -5 -10 -12 -22 -16 -13 -4 -30 -15
-39 -25 -9 -11 -20 -19 -25 -19 -5 0 -17 -8 -26 -17 -9 -10 -23 -23 -30 -30
-23 -21 -35 -39 -43 -63 -4 -12 -29 -44 -56 -70 -27 -26 -49 -51 -49 -55 0 -4
-11 -18 -25 -31 -14 -13 -25 -32 -25 -43 0 -11 -7 -26 -15 -35 -8 -8 -15 -26
-15 -40 0 -14 -4 -26 -10 -26 -5 0 -12 -16 -16 -35 -3 -19 -10 -35 -15 -35 -5
0 -9 -7 -9 -15 0 -9 -7 -18 -15 -21 -8 -4 -15 -15 -15 -25 0 -10 -4 -19 -10
-19 -5 0 -10 -7 -10 -15 0 -7 -7 -18 -15 -22 -8 -5 -17 -32 -21 -68 -5 -40
-14 -66 -26 -76 -12 -11 -21 -37 -25 -70 -4 -30 -12 -60 -20 -67 -7 -7 -13
-30 -13 -51 0 -25 -6 -41 -20 -51 -11 -8 -20 -22 -20 -31 0 -10 -6 -24 -13
-31 -8 -7 -16 -35 -19 -61 -4 -30 -13 -54 -25 -65 -11 -9 -23 -33 -27 -54 -3
-20 -13 -39 -21 -42 -8 -3 -15 -14 -15 -25 0 -11 -9 -22 -19 -26 -11 -3 -22
-19 -26 -35 -4 -17 -10 -30 -15 -30 -4 0 -11 -17 -15 -37 -4 -20 -15 -44 -24
-53 -10 -8 -21 -30 -24 -48 -4 -18 -14 -40 -22 -48 -8 -9 -15 -24 -15 -35 0
-10 -4 -19 -10 -19 -5 0 -10 -15 -10 -34 0 -21 -6 -36 -15 -40 -8 -3 -15 -15
-15 -26 0 -11 -4 -20 -10 -20 -5 0 -10 -7 -10 -15 0 -8 -4 -15 -9 -15 -5 0
-12 -13 -16 -30 -4 -17 -11 -30 -16 -30 -5 0 -12 -18 -15 -40 -4 -22 -10 -40
-15 -40 -5 0 -9 -9 -9 -21 0 -11 -7 -27 -15 -35 -8 -9 -15 -29 -15 -45 0 -16
-5 -29 -11 -29 -19 0 -39 -28 -39 -54 0 -14 -4 -26 -8 -26 -5 0 -12 -127 -16
-282 -4 -160 -11 -284 -17 -286 -5 -2 -9 -88 -9 -203 l0 -199 -64 0 c-44 0
-65 -4 -69 -13 -10 -27 10 -38 72 -38 l62 -1 -3 -360 c-2 -278 -6 -362 -15
-366 -9 -2 -13 -27 -13 -78 0 -68 -12 -98 -23 -57 -4 14 -5 12 -6 -4 0 -13 -5
-23 -11 -23 -5 0 -10 -16 -10 -35 0 -22 -6 -38 -15 -41 -9 -4 -15 -19 -15 -41
0 -19 -7 -41 -15 -49 -8 -9 -15 -31 -15 -50 0 -20 -7 -42 -15 -50 -10 -11 -15
-36 -15 -85 0 -39 -4 -69 -10 -69 -6 0 -10 -62 -10 -165 0 -125 3 -165 13
-165 25 0 35 16 42 62 5 32 13 49 25 53 14 4 19 19 22 64 3 37 10 65 21 75 9
10 17 24 17 32 0 8 5 14 10 14 6 0 10 11 10 24 0 13 5 26 11 28 8 3 14 48 17
126 2 67 8 122 12 122 4 0 10 33 13 72 4 40 11 74 17 76 5 2 10 30 10 62 0 38
4 60 13 62 9 4 13 92 15 386 l4 382 24 0 c13 0 24 5 24 11 0 14 -25 39 -39 39
-14 0 -15 347 -2 352 5 2 12 130 16 286 4 155 12 282 16 282 5 0 9 14 9 30 0
20 9 39 23 53 14 12 27 39 30 62 4 22 11 41 17 43 5 2 10 15 10 28 0 13 4 24
9 24 5 0 11 18 15 40 3 22 11 40 16 40 6 0 10 7 10 15 0 8 4 15 9 15 5 0 12
15 15 34 4 19 13 37 21 40 8 3 15 15 15 26 0 11 5 20 10 20 6 0 10 7 10 15 0
8 5 15 10 15 6 0 10 11 10 25 0 14 6 28 14 31 8 3 17 27 21 55 4 27 11 49 16
49 5 0 9 7 9 15 0 8 4 15 9 15 4 0 11 16 14 36 3 20 17 46 32 59 14 13 25 29
25 35 0 5 4 10 10 10 5 0 12 16 16 35 3 19 10 35 14 35 4 0 11 12 15 27 3 15
15 35 27 44 11 10 22 36 25 58 3 23 9 41 13 41 4 0 10 17 13 38 4 21 15 44 27
52 14 10 20 26 20 52 0 20 6 41 14 45 7 4 16 33 19 63 4 30 11 56 17 58 5 2
10 12 10 23 0 10 4 19 10 19 5 0 12 27 16 59 4 37 12 62 20 65 8 3 14 16 14
30 0 15 7 27 19 31 12 3 21 19 25 40 4 19 11 35 16 35 4 0 11 14 15 30 4 17
11 30 16 30 5 0 9 5 9 11 0 6 7 17 15 25 8 9 15 27 15 40 0 30 10 43 73 99 15
13 27 30 27 38 0 8 11 22 24 33 14 10 27 28 31 41 3 13 10 23 15 23 6 0 10 6
10 14 0 8 11 17 24 20 14 3 27 15 31 25 3 12 19 21 39 25 19 4 37 13 40 21 3
8 15 15 26 15 11 0 20 4 20 9 0 17 50 61 69 61 20 0 51 24 51 41 0 5 8 9 18 9
10 0 29 13 42 30 14 16 33 29 43 30 10 0 20 7 23 15 4 8 17 15 30 15 13 0 24
5 24 10 0 6 11 10 25 10 14 0 28 7 31 15 4 8 15 15 25 15 11 0 22 7 25 15 4 9
19 15 39 15 20 0 35 6 39 15 4 11 20 15 56 15 27 0 50 4 50 9 0 5 43 12 95 16
52 4 95 11 95 16 0 5 16 9 35 9 19 0 35 4 35 9 0 5 23 11 51 13 28 3 55 12 60
19 6 11 53 15 219 18 115 1 210 7 210 12 0 5 11 9 24 9 13 0 26 6 28 13 4 9
47 13 161 15 86 2 157 7 157 12 0 4 53 10 117 12 82 2 118 7 121 16 5 15 418
18 424 2 2 -5 38 -13 80 -16 51 -5 79 -11 82 -20 4 -11 43 -14 187 -14 164 0
183 -2 198 -18 12 -15 36 -20 106 -25 49 -4 91 -11 93 -16 2 -6 35 -13 73 -17
38 -4 69 -11 69 -15 0 -5 27 -9 60 -9 33 0 60 -4 60 -9 0 -5 23 -11 51 -13 28
-3 54 -10 58 -15 3 -6 23 -13 44 -17 20 -4 37 -11 37 -16 0 -6 11 -10 24 -10
13 0 26 -7 30 -15 3 -8 17 -15 31 -15 14 0 25 -4 25 -10 0 -5 16 -12 35 -16
19 -3 35 -10 35 -15 0 -5 9 -9 20 -9 11 0 20 -4 20 -10 0 -5 8 -10 18 -10 10
0 25 -9 35 -20 9 -11 24 -20 32 -20 8 0 15 -7 15 -15 0 -8 4 -15 10 -15 5 0
12 -11 16 -25 3 -14 10 -25 14 -25 4 0 11 -11 14 -25 4 -14 14 -25 24 -25 9
-1 28 -14 42 -30 13 -17 32 -30 41 -30 10 0 21 -9 24 -20 3 -11 12 -20 19 -20
7 0 23 -9 36 -20 13 -11 29 -20 37 -20 7 0 13 -9 13 -20 0 -11 7 -23 15 -26 8
-4 15 -10 15 -16 0 -5 6 -16 13 -23 28 -32 34 -42 41 -68 3 -15 11 -27 16 -27
6 0 10 -13 10 -30 0 -16 4 -30 9 -30 5 0 13 -10 17 -22 4 -13 11 -26 16 -29 5
-3 11 -22 15 -42 5 -31 3 -37 -11 -37 -10 0 -23 -6 -30 -13 -19 -19 5 -37 48
-37 36 0 46 -12 46 -56 0 -13 5 -24 10 -24 6 0 10 -7 10 -15 0 -8 4 -15 9 -15
5 0 12 -36 16 -80 4 -44 11 -80 16 -80 5 0 9 -29 9 -65 0 -49 4 -67 15 -71 8
-4 15 -17 15 -30 0 -13 4 -24 9 -24 5 0 12 -11 15 -25 4 -14 13 -25 21 -25 8
0 15 -4 15 -9 0 -5 9 -13 20 -16 11 -3 20 -13 20 -21 0 -16 94 -114 110 -114
5 0 10 -4 10 -10 0 -5 8 -10 18 -10 10 0 25 -9 35 -20 9 -11 23 -20 30 -20 7
0 19 -9 27 -20 8 -11 23 -20 33 -20 28 0 137 -116 137 -146 0 -20 5 -24 30
-24 25 0 30 -4 30 -24 0 -13 7 -26 15 -30 9 -3 15 -19 15 -41 0 -19 5 -35 10
-35 6 0 10 -7 10 -15 0 -8 7 -15 15 -15 9 0 15 -9 15 -25 0 -16 6 -25 15 -25
12 0 15 -16 15 -80 0 -64 3 -80 15 -80 10 0 15 -10 15 -30 0 -16 5 -30 10 -30
6 0 10 -127 10 -360 0 -233 -4 -360 -10 -360 -5 0 -10 -22 -10 -50 0 -38 -4
-50 -15 -50 -8 0 -15 -9 -15 -20 0 -11 -7 -20 -15 -20 -8 0 -15 -9 -15 -20 0
-11 -7 -20 -15 -20 -8 0 -15 -6 -15 -14 0 -8 -5 -16 -10 -18 -6 -2 -14 -45
-17 -96 -3 -50 -10 -92 -14 -92 -5 0 -9 -18 -9 -40 0 -36 -3 -40 -24 -40 -40
0 -56 -11 -56 -36 0 -13 -4 -24 -9 -24 -5 0 -13 -15 -16 -32 -4 -18 -12 -36
-17 -39 -4 -3 -11 -29 -15 -57 -5 -46 -8 -52 -29 -52 -22 0 -24 -4 -24 -55 0
-37 -4 -55 -12 -55 -10 0 -10 -2 0 -9 11 -7 11 -9 -2 -14 -9 -4 -16 -12 -16
-19 0 -8 -9 -20 -20 -28 -12 -8 -20 -26 -20 -42 0 -24 -4 -28 -30 -28 -23 0
-30 -4 -30 -20 0 -11 -4 -20 -10 -20 -5 0 -10 -14 -10 -31 0 -22 -5 -32 -20
-36 -17 -5 -20 -14 -20 -64 0 -33 -4 -59 -10 -59 -5 0 -10 -18 -10 -40 0 -29
-4 -40 -15 -40 -8 0 -15 -7 -15 -15 0 -8 -7 -15 -15 -15 -21 0 -65 -48 -65
-70 0 -11 -4 -20 -10 -20 -5 0 -10 -11 -10 -25 0 -20 -5 -25 -25 -25 -16 0
-25 -6 -25 -15 0 -8 -6 -15 -14 -15 -18 0 -26 -45 -26 -146 0 -49 -4 -84 -10
-84 -6 0 -10 -33 -10 -80 0 -47 -4 -80 -10 -80 -6 0 -10 -46 -10 -119 0 -118
0 -119 -25 -125 -14 -4 -25 -13 -25 -21 0 -8 -6 -15 -14 -15 -8 0 -18 -9 -21
-20 -3 -11 -11 -20 -16 -20 -5 0 -9 -7 -9 -15 0 -8 -4 -15 -10 -15 -5 0 -10
-7 -10 -15 0 -8 -7 -15 -15 -15 -10 0 -15 -10 -15 -30 0 -26 -4 -30 -26 -30
-26 0 -54 -20 -54 -39 0 -6 -13 -11 -30 -11 -20 0 -30 -5 -30 -15 0 -8 -4 -15
-10 -15 -5 0 -10 -9 -10 -19 0 -32 -11 -51 -30 -51 -12 0 -21 -10 -25 -30 -4
-17 -13 -30 -21 -30 -9 0 -14 -11 -14 -30 0 -16 -4 -30 -10 -30 -5 0 -10 -9
-10 -20 0 -11 -7 -20 -15 -20 -8 0 -15 -9 -15 -20 0 -11 -4 -20 -10 -20 -5 0
-10 -9 -10 -20 0 -11 -7 -20 -15 -20 -8 0 -15 -9 -15 -20 0 -11 -7 -20 -15
-20 -8 0 -15 -9 -15 -20 0 -11 -4 -20 -10 -20 -5 0 -10 -6 -10 -14 0 -17 -31
-26 -87 -26 -36 0 -43 -3 -43 -19 0 -12 -8 -21 -22 -24 -13 -2 32 -5 99 -6
133 -1 153 3 153 29 0 11 10 20 25 24 19 5 25 13 26 34 0 15 3 21 6 15 2 -7
11 -13 19 -13 8 0 32 -18 53 -39 27 -27 51 -41 80 -46 33 -5 41 -4 41 8 0 23
-28 47 -55 47 -16 0 -25 7 -29 25 -4 14 -13 25 -20 25 -8 0 -16 7 -20 15 -3 8
-12 15 -21 15 -11 0 -15 10 -15 35 0 28 4 35 19 35 15 0 21 10 26 40 4 22 11
40 15 40 5 0 11 14 15 30 4 20 13 30 25 30 11 0 20 10 24 26 9 36 30 54 60 54
21 0 26 5 26 25 0 20 5 25 25 25 16 0 25 6 25 15 0 8 7 15 15 15 9 0 15 9 15
25 0 16 6 25 15 25 8 0 15 7 15 16 0 18 23 44 39 44 6 0 11 7 11 15 0 8 5 15
10 15 6 0 10 5 10 11 0 6 7 17 15 25 8 9 15 24 15 34 0 10 5 22 12 26 6 4 8 3
4 -4 -3 -6 -2 -14 4 -17 6 -4 10 -3 9 2 -1 4 -1 61 0 126 l1 117 25 0 c24 0
25 2 25 70 0 39 4 70 8 70 5 0 12 52 15 116 5 100 9 119 27 134 11 9 20 27 20
39 0 12 6 21 15 21 8 0 15 7 15 15 0 8 5 15 11 15 16 0 39 26 39 44 0 9 6 16
14 16 8 0 18 9 21 20 3 11 11 20 16 20 5 0 9 9 9 20 0 19 14 25 48 21 8 -1 12
17 12 64 0 37 4 65 10 65 6 0 10 15 10 34 0 21 6 36 15 40 8 3 15 12 15 21 0
8 5 15 10 15 6 0 10 15 10 34 0 30 3 35 28 38 20 2 28 9 31 28 1 14 7 28 12
31 5 3 12 33 15 67 4 34 11 62 15 62 5 0 9 14 9 30 0 17 5 30 10 30 6 0 10 16
10 35 0 32 2 35 30 35 23 0 30 4 30 20 0 11 5 20 10 20 6 0 10 8 10 18 0 18
33 52 50 52 6 0 10 14 10 30 0 20 5 30 15 30 12 0 15 15 15 75 0 60 3 75 15
75 11 0 15 11 15 43 0 33 5 46 25 61 18 14 25 28 25 52 0 19 5 34 10 34 6 0
10 14 10 30 0 17 5 30 11 30 5 0 7 -5 3 -12 -4 -7 -3 -8 4 -4 9 5 12 124 12
442 0 379 -2 434 -15 434 -11 0 -15 12 -15 45 0 29 -4 45 -12 45 -9 0 -8 4 2
10 8 5 10 10 4 10 -7 0 -13 28 -17 66 -3 37 -10 70 -17 74 -9 6 -9 9 1 13 10
4 10 6 2 6 -7 1 -13 10 -13 21 0 11 -4 20 -10 20 -5 0 -10 14 -10 30 0 20 -5
30 -15 30 -8 0 -15 7 -15 15 0 8 -7 15 -15 15 -8 0 -15 5 -15 10 0 6 -7 10
-15 10 -11 0 -15 11 -15 40 0 22 -4 40 -10 40 -5 0 -10 5 -10 11 0 14 -50 63
-73 72 -9 3 -17 11 -17 17 0 5 -4 10 -10 10 -5 0 -10 -7 -10 -15 0 -19 -19
-19 -26 0 -3 8 -21 17 -40 21 -20 4 -36 13 -39 24 -3 10 -20 22 -37 25 -17 4
-41 18 -53 31 -12 13 -30 24 -38 24 -19 0 -87 65 -87 83 -1 7 -14 23 -30 37
-17 13 -30 32 -30 42 0 10 -4 18 -10 18 -5 0 -10 7 -10 16 0 8 -7 22 -15 30
-9 10 -15 34 -15 65 0 27 -4 49 -9 49 -5 0 -12 38 -16 85 -4 47 -11 85 -16 85
-5 0 -9 7 -9 15 0 8 -4 15 -10 15 -5 0 -10 16 -10 35 0 35 0 35 44 35 74 0 93
15 60 47 -10 10 -18 12 -22 6 -4 -6 -31 -12 -60 -15 l-52 -5 -6 38 c-4 22 -10
39 -15 39 -5 0 -9 7 -9 15 0 8 -4 15 -10 15 -5 0 -12 11 -16 25 -3 14 -10 25
-15 25 -5 0 -9 11 -9 25 0 14 -4 25 -10 25 -5 0 -10 9 -10 19 0 11 -7 26 -15
35 -8 8 -15 23 -15 34 0 11 -11 28 -25 38 -14 10 -25 24 -25 31 0 6 -14 25
-30 42 l-31 30 21 21 c11 11 34 23 50 27 17 3 30 9 30 14 0 5 20 9 45 9 25 0
45 5 45 10 0 6 9 10 20 10 23 0 27 25 6 33 -20 8 -96 -3 -136 -20 -60 -25 -80
-36 -80 -45 0 -4 -18 -8 -40 -8 -22 0 -40 5 -40 10 0 6 -7 10 -15 10 -8 0 -15
5 -15 10 0 6 -6 10 -13 10 -19 0 -67 42 -67 58 0 7 -11 23 -25 36 -14 13 -25
26 -25 30 0 3 -23 29 -50 56 -38 38 -58 50 -80 50 -17 0 -30 5 -30 10 0 6 -11
10 -25 10 -14 0 -25 4 -25 9 0 5 -11 12 -25 15 -14 4 -25 11 -25 16 0 6 -9 10
-19 10 -11 0 -26 7 -35 15 -8 8 -24 15 -36 15 -12 0 -28 7 -36 15 -9 8 -26 15
-39 15 -13 0 -25 4 -27 10 -1 5 -31 13 -65 16 -35 4 -63 11 -63 15 0 5 -18 9
-40 9 -22 0 -40 4 -40 9 0 5 -37 12 -82 16 -46 4 -86 12 -89 17 -4 6 -45 12
-93 15 -47 3 -86 10 -86 14 0 5 -7 9 -15 9 -8 0 -15 5 -15 10 0 6 -63 10 -169
10 -128 0 -173 3 -183 13 -8 8 -50 17 -103 21 -50 3 -91 11 -93 16 -6 16 -459
13 -464 -2 -3 -9 -39 -14 -121 -16 -64 -2 -117 -8 -117 -12 0 -5 -68 -10 -152
-12 -110 -2 -153 -6 -156 -15 -2 -7 -15 -13 -28 -13 -13 0 -24 -4 -24 -9 0 -6
-92 -11 -215 -13 -164 -2 -218 -6 -224 -16 -4 -7 -33 -16 -64 -19 -32 -3 -57
-10 -57 -14 0 -5 -11 -9 -24 -9 -13 0 -26 -4 -28 -9 -1 -5 -40 -12 -85 -16
l-83 -7 0 96 c0 53 -4 96 -9 96 -4 0 -11 16 -14 36 -3 20 -16 44 -28 55 -12
10 -22 19 -23 18 -1 0 -7 -3 -13 -6z"/>
<path d="M3120 5520 c0 -19 -7 -20 -200 -20 -161 0 -200 -3 -200 -13 0 -11
-36 -15 -157 -20 -87 -4 -188 -7 -225 -7 -66 0 -68 -1 -68 -25 0 -16 -6 -25
-16 -25 -11 0 -14 -5 -10 -16 3 -9 6 -20 6 -25 0 -5 47 -9 105 -9 87 0 105 3
105 15 0 12 14 15 65 15 37 0 65 4 65 10 0 6 38 10 95 10 93 0 95 0 95 24 0
22 4 23 83 29 45 4 128 7 183 7 81 0 103 3 108 15 8 22 736 23 736 1 0 -10 17
-17 55 -21 49 -7 55 -10 55 -31 0 -22 4 -24 50 -24 28 0 50 -4 50 -10 0 -5 14
-10 30 -10 20 0 30 -5 30 -15 0 -11 12 -15 50 -15 38 0 50 -4 50 -15 0 -8 9
-15 20 -15 11 0 20 -4 20 -10 0 -6 125 -10 355 -10 230 0 355 4 355 10 0 6 77
10 211 10 177 0 213 -2 226 -16 9 -8 25 -14 37 -13 57 4 75 -1 78 -23 2 -17
11 -24 31 -26 15 -2 27 -9 27 -18 0 -8 7 -14 15 -14 8 0 15 -9 15 -20 0 -13 7
-20 19 -20 30 0 51 -11 51 -26 0 -8 7 -14 15 -14 8 0 15 -8 15 -19 0 -18 41
-32 68 -23 14 4 16 42 3 42 -5 0 -11 9 -14 20 -3 14 -14 20 -31 20 -19 0 -26
5 -26 20 0 11 -7 20 -15 20 -8 0 -15 6 -15 14 0 15 -21 26 -51 26 -12 0 -19 7
-19 20 0 15 -9 21 -40 26 -22 4 -40 10 -40 15 0 5 -7 9 -15 9 -8 0 -15 7 -15
15 0 11 -11 15 -40 15 -29 0 -40 4 -40 15 0 13 -72 15 -585 15 -357 0 -585 4
-585 9 0 6 -15 11 -32 13 -25 2 -34 8 -36 24 -3 20 -11 22 -103 29 -75 5 -99
10 -99 21 0 10 -12 14 -40 14 -33 0 -40 3 -40 20 0 20 -7 20 -410 20 -403 0
-410 0 -410 -20z"/>
<path d="M3373 5093 c-29 -3 -43 -9 -43 -19 0 -10 -12 -14 -40 -14 -22 0 -40
-4 -40 -10 0 -6 -27 -10 -60 -10 -47 0 -60 -3 -60 -15 0 -12 -17 -15 -95 -15
-95 0 -95 0 -95 -25 0 -24 -3 -25 -55 -25 -51 0 -55 -2 -52 -22 2 -24 -24 -35
-95 -37 -20 0 -40 -6 -44 -13 -4 -6 -3 -8 4 -4 6 3 13 3 16 -2 3 -5 -18 -10
-47 -11 -29 -1 -53 -6 -55 -12 -2 -5 -26 -9 -53 -9 -37 0 -49 -4 -49 -15 0
-11 -11 -15 -40 -15 -29 0 -40 -4 -40 -15 0 -11 -11 -15 -40 -15 -22 0 -40 -4
-40 -10 0 -5 -22 -10 -50 -10 -38 0 -50 -4 -50 -15 0 -13 -35 -15 -255 -15
-163 0 -255 -4 -255 -10 0 -5 -7 -10 -16 -10 -12 0 -15 -6 -10 -22 3 -13 6
-26 6 -30 0 -5 18 -8 40 -8 29 0 40 4 40 15 0 13 33 15 235 15 202 0 235 2
235 15 0 12 13 15 55 15 30 0 55 5 55 10 0 6 25 10 55 10 42 0 55 3 55 15 0
10 11 15 35 15 19 0 35 5 35 10 0 6 20 10 45 10 33 0 45 4 45 15 0 11 11 15
40 15 29 0 40 4 40 15 0 11 12 15 50 15 28 0 50 5 50 10 0 6 7 10 15 10 8 0
15 6 15 14 0 11 26 16 115 21 112 7 115 8 115 31 0 22 4 24 45 24 41 0 45 2
45 25 0 25 0 25 95 25 78 0 95 3 95 15 0 11 11 15 40 15 22 0 40 5 40 10 0 6
53 10 140 10 87 0 140 -4 140 -10 0 -5 25 -10 55 -10 42 0 55 -3 55 -15 0 -12
16 -15 80 -15 79 0 80 0 80 -25 0 -16 6 -25 15 -25 9 0 15 -9 15 -25 0 -22 4
-25 34 -25 79 0 156 -13 156 -26 0 -8 11 -14 25 -14 14 0 25 -4 25 -10 0 -5 7
-10 15 -10 8 0 15 -7 15 -15 0 -13 52 -15 410 -15 323 0 409 -3 408 -12 -2
-10 43 -14 195 -16 200 -2 227 -7 227 -41 0 -6 11 -11 25 -11 20 0 25 5 25 25
0 14 -4 25 -10 25 -5 0 -10 7 -10 15 0 8 -7 15 -15 15 -8 0 -15 7 -15 15 0 13
-26 15 -175 15 -110 0 -175 4 -175 10 0 6 -50 10 -130 10 -109 0 -130 2 -130
15 0 13 -41 15 -309 15 -355 0 -370 2 -363 36 4 22 1 24 -37 24 -37 0 -41 2
-41 25 0 23 -3 24 -77 27 -56 2 -77 7 -75 16 1 6 -7 12 -19 12 -11 0 -17 5
-14 10 4 6 -15 10 -49 10 -41 0 -56 4 -56 14 0 9 -20 15 -61 20 -63 6 -380 6
-456 -1z"/>
<path d="M5303 4373 c-10 -27 -23 -33 -75 -33 -41 0 -46 -2 -41 -20 4 -14 -1
-21 -21 -26 -14 -3 -26 -12 -26 -20 0 -8 -7 -14 -15 -14 -8 0 -15 -7 -15 -15
0 -8 -9 -15 -20 -15 -11 0 -20 -4 -20 -10 0 -6 27 -10 60 -10 33 0 60 4 60 10
0 6 7 10 15 10 8 0 15 7 15 15 0 9 9 15 25 15 16 0 25 6 25 15 0 13 33 15 240
15 207 0 240 -2 240 -15 0 -11 12 -15 45 -15 33 0 45 -4 45 -15 0 -8 9 -15 20
-15 11 0 20 -4 20 -10 0 -5 20 -10 45 -10 33 0 45 -4 45 -15 0 -8 7 -15 15
-15 8 0 15 -7 15 -15 0 -8 5 -15 10 -15 6 0 10 -5 10 -11 0 -6 7 -17 15 -25 8
-9 15 -26 15 -38 0 -20 7 -25 40 -30 30 -5 40 -11 40 -25 0 -21 19 -31 56 -31
35 0 34 45 -1 54 -18 5 -25 13 -25 31 0 16 -6 25 -15 25 -8 0 -15 5 -15 10 0
6 -7 10 -15 10 -8 0 -15 7 -15 15 0 8 -4 15 -10 15 -5 0 -10 7 -10 15 0 8 -7
15 -15 15 -8 0 -15 7 -15 15 0 9 -9 15 -25 15 -14 0 -25 5 -25 10 0 6 -7 10
-15 10 -8 0 -15 7 -15 15 0 10 -10 15 -30 15 -20 0 -30 5 -30 15 0 8 -7 15
-15 15 -9 0 -15 9 -15 25 0 25 0 25 -94 25 l-93 0 5 25 4 25 -196 0 c-178 0
-197 -2 -203 -17z"/>
<path d="M2610 4210 c0 -17 -7 -20 -45 -20 -38 0 -45 -3 -45 -20 0 -19 -7 -20
-110 -20 l-110 0 0 -25 c0 -23 -3 -25 -50 -25 -38 0 -50 -4 -50 -15 0 -12 -13
-15 -60 -15 -47 0 -60 -3 -60 -15 0 -9 -9 -15 -25 -15 -14 0 -25 -4 -25 -10 0
-6 -28 -10 -65 -10 -51 0 -65 -3 -65 -15 0 -8 -7 -15 -15 -15 -8 0 -15 -7 -15
-15 0 -8 -4 -15 -10 -15 -5 0 -10 -9 -10 -20 0 -15 -7 -20 -25 -20 -21 0 -25
-5 -25 -30 0 -28 3 -30 35 -30 30 0 35 3 35 24 0 24 21 36 68 36 15 0 22 6 22
20 0 15 7 20 25 20 16 0 25 6 25 15 0 8 7 15 15 15 8 0 15 7 15 15 0 12 18 15
100 15 60 0 100 4 100 10 0 6 26 10 59 10 43 0 60 4 65 15 4 11 22 15 76 15
56 0 70 3 70 15 0 8 8 15 19 15 14 0 17 6 13 25 l-4 25 376 0 376 0 0 -25 c0
-22 4 -25 35 -25 32 0 35 2 35 31 0 19 -4 28 -11 23 -8 -4 -9 0 -4 15 6 19 3
21 -39 21 -39 0 -46 3 -46 20 0 20 -7 20 -325 20 -318 0 -325 0 -325 -20z"/>
<path d="M5170 3815 c0 -78 -3 -95 -15 -95 -12 0 -15 -20 -15 -120 l0 -120 25
0 25 0 0 100 c0 82 3 100 15 100 12 0 15 17 15 90 0 73 -3 90 -15 90 -9 0 -15
9 -15 25 0 14 -4 25 -10 25 -6 0 -10 -38 -10 -95z"/>
<path d="M3393 3779 c-2 -29 17 -46 59 -54 32 -6 36 -11 42 -46 3 -21 11 -39
16 -39 6 0 10 -9 10 -20 0 -11 7 -20 15 -20 11 0 15 -11 15 -40 0 -29 4 -40
15 -40 11 0 15 -11 15 -40 0 -36 3 -40 25 -40 24 0 25 3 25 58 0 76 -8 102
-31 102 -12 0 -19 7 -19 20 0 11 -7 20 -15 20 -11 0 -15 11 -15 39 0 29 -6 43
-25 57 -14 10 -25 24 -25 31 0 7 -11 13 -25 13 -14 0 -25 5 -25 10 0 6 -13 10
-28 10 -21 0 -28 -5 -29 -21z"/>
<path d="M6328 3610 c-2 -5 -64 -13 -140 -17 -136 -6 -138 -6 -138 -30 0 -21
-4 -23 -55 -23 -42 0 -55 -3 -55 -15 0 -9 -9 -15 -25 -15 -14 0 -25 -4 -25
-10 0 -5 -11 -10 -25 -10 -16 0 -25 -6 -25 -15 0 -8 -7 -15 -15 -15 -8 0 -14
-3 -14 -7 4 -18 -14 -93 -22 -93 -5 0 -9 -49 -9 -110 0 -67 4 -110 10 -110 6
0 10 -11 10 -24 0 -28 21 -36 103 -36 31 0 57 -4 57 -10 0 -6 56 -10 148 -10
182 0 222 -6 222 -31 0 -14 7 -19 30 -19 23 0 30 -4 30 -20 0 -11 7 -20 15
-20 8 0 15 -4 15 -10 0 -6 52 -10 135 -10 l135 0 0 30 c0 23 4 30 20 30 19 0
20 7 20 140 0 133 1 140 20 140 18 0 20 7 20 75 0 68 -2 75 -20 75 -15 0 -20
7 -20 25 0 18 -5 25 -20 25 -13 0 -22 9 -26 25 -3 14 -10 25 -14 25 -5 0 -10
12 -12 28 -2 21 -9 28 -30 30 -16 2 -28 8 -28 13 0 13 -267 12 -272 -1z m-118
-285 l0 -135 -160 0 c-100 0 -160 4 -160 10 0 6 -11 10 -25 10 -24 0 -25 3
-25 55 0 52 1 55 25 55 18 0 25 5 25 20 0 11 5 20 10 20 6 0 10 9 10 19 0 13
9 21 30 26 17 4 30 13 30 21 0 10 14 14 54 14 30 0 58 5 61 10 3 6 33 10 66
10 l59 0 0 -135z m440 -200 c0 -38 -3 -45 -20 -45 -11 0 -20 -4 -20 -10 0 -16
-50 -12 -66 5 -9 8 -11 15 -5 15 6 0 11 11 11 25 0 20 5 25 25 25 14 0 25 6
25 13 0 7 11 14 25 15 23 2 25 -1 25 -43z"/>
<path d="M1230 3515 c0 -18 -5 -25 -20 -25 -19 0 -20 -7 -20 -90 0 -74 -3 -91
-17 -99 -16 -9 -18 -32 -22 -217 -4 -254 5 -394 25 -394 9 0 14 -11 14 -30 0
-23 4 -30 20 -30 15 0 21 -9 26 -40 4 -22 10 -40 15 -40 5 0 9 -7 9 -15 0 -8
7 -15 15 -15 9 0 15 -9 15 -25 0 -14 5 -25 10 -25 6 0 10 -66 10 -177 0 -189
4 -223 26 -223 8 0 14 -6 14 -13 0 -7 8 -22 19 -33 10 -11 22 -30 25 -42 6
-18 15 -22 47 -22 35 0 39 -3 39 -25 0 -14 4 -25 9 -25 5 0 11 -18 15 -40 3
-22 11 -40 16 -40 6 0 10 -7 10 -15 0 -8 5 -15 10 -15 6 0 10 -11 10 -25 0
-16 6 -25 15 -25 11 0 15 -11 15 -40 0 -29 4 -40 15 -40 8 0 15 -9 15 -20 0
-11 4 -20 9 -20 5 0 12 -15 15 -34 4 -22 14 -37 26 -41 11 -4 20 -11 20 -16 0
-5 12 -9 26 -9 28 0 54 -21 54 -44 0 -8 6 -21 14 -28 7 -8 17 -25 21 -38 10
-32 29 -50 54 -50 14 0 23 -8 27 -25 3 -14 10 -25 15 -25 5 0 9 -7 9 -15 0 -8
7 -15 15 -15 8 0 15 -4 15 -10 0 -5 18 -10 40 -10 33 0 40 -3 40 -20 0 -11 4
-20 9 -20 5 0 12 -15 15 -34 4 -22 14 -37 26 -41 11 -4 20 -15 20 -25 0 -12
10 -21 30 -25 23 -5 30 -12 30 -31 0 -13 5 -24 10 -24 6 0 10 -11 10 -25 0
-15 6 -25 14 -25 7 0 16 -9 19 -20 4 -16 14 -20 46 -20 34 0 41 -3 41 -19 0
-11 9 -22 20 -26 12 -4 22 -19 26 -41 5 -28 10 -34 33 -34 53 0 70 -11 77 -46
6 -31 9 -34 55 -40 32 -4 49 -11 49 -20 0 -8 10 -14 25 -14 18 0 25 -5 25 -20
0 -11 3 -19 8 -19 27 5 41 -4 47 -29 3 -15 15 -34 25 -42 11 -8 20 -22 20 -32
0 -10 7 -18 15 -18 8 0 17 -11 21 -25 5 -21 12 -25 40 -25 24 0 34 -5 34 -15
0 -10 10 -15 30 -15 25 0 30 -4 30 -25 0 -14 5 -25 11 -25 14 0 39 -25 39 -39
0 -6 4 -11 9 -11 5 0 12 -14 16 -30 4 -17 10 -30 15 -30 4 0 11 -11 14 -25 4
-16 13 -25 26 -25 23 0 60 -29 60 -47 0 -7 8 -13 19 -13 14 0 21 -10 25 -35 6
-29 11 -35 31 -35 20 0 25 -5 25 -25 0 -14 5 -25 10 -25 6 0 10 -6 10 -14 0
-7 9 -16 20 -19 11 -3 20 -14 20 -25 0 -15 9 -21 38 -26 42 -7 236 -6 210 1
-10 2 -18 13 -18 24 0 14 -9 20 -40 25 -24 4 -40 12 -40 20 0 8 -7 14 -15 14
-8 0 -15 9 -15 20 0 15 -7 20 -27 20 -43 0 -73 11 -73 26 0 8 -4 14 -9 14 -5
0 -11 13 -14 29 -8 36 -59 91 -86 91 -13 0 -21 9 -26 30 -4 20 -13 30 -25 30
-11 0 -20 10 -24 26 -9 34 -29 54 -54 54 -15 0 -21 9 -26 40 -4 26 -11 40 -21
40 -8 0 -15 5 -15 11 0 17 -27 39 -49 39 -14 0 -21 6 -21 20 0 15 -7 20 -25
20 -18 0 -26 7 -31 25 -3 14 -12 25 -20 25 -8 0 -14 7 -14 15 0 8 -9 15 -19
15 -11 0 -23 9 -26 20 -3 11 -13 20 -21 20 -8 0 -14 6 -14 14 0 8 -9 17 -19
21 -12 3 -21 19 -25 39 -6 32 -10 35 -56 41 -40 6 -50 11 -50 26 0 14 -7 19
-30 19 -19 0 -30 5 -30 14 0 8 -9 18 -20 21 -11 4 -20 15 -20 27 0 11 -8 22
-20 25 -11 3 -20 12 -20 19 0 10 -13 14 -43 14 -51 0 -60 6 -46 31 5 11 6 19
2 18 -23 -4 -33 3 -33 25 0 20 -6 25 -40 31 -31 5 -40 11 -40 26 0 11 -7 22
-15 25 -8 3 -17 21 -21 40 -3 19 -10 34 -15 34 -5 0 -9 9 -9 20 0 15 -7 20
-26 20 -26 0 -54 20 -54 39 0 6 -4 11 -10 11 -5 0 -10 6 -10 13 0 24 -37 57
-64 57 -16 0 -26 5 -26 15 0 8 -4 15 -10 15 -5 0 -10 7 -10 15 0 8 -5 15 -11
15 -17 0 -35 23 -43 53 -4 18 -13 27 -26 27 -23 0 -60 29 -60 47 0 7 -4 13 -9
13 -5 0 -12 18 -16 40 -7 39 -8 40 -46 40 -39 0 -39 0 -39 40 0 22 -4 40 -10
40 -5 0 -10 11 -10 24 0 13 -5 26 -11 28 -6 2 -13 25 -16 51 -5 39 -10 48 -29
53 -19 5 -24 13 -24 40 0 24 -5 34 -15 34 -8 0 -15 6 -15 14 0 8 -9 18 -20 21
-11 3 -23 17 -26 31 -3 13 -10 24 -15 24 -5 0 -9 7 -9 15 0 11 -11 15 -39 15
l-38 0 -7 61 c-3 34 -6 129 -6 210 0 93 -4 149 -10 149 -5 0 -10 7 -10 15 0 8
-4 15 -10 15 -5 0 -10 18 -10 40 0 22 -3 39 -8 37 -4 -1 -17 8 -30 21 -16 16
-22 34 -22 67 0 33 -4 45 -15 45 -12 0 -15 13 -15 55 0 30 -4 55 -10 55 -6 0
-10 63 -10 170 0 107 4 170 10 170 6 0 10 18 10 40 0 29 4 40 15 40 12 0 15
19 15 115 0 96 -3 115 -15 115 -8 0 -15 5 -15 10 0 6 -7 10 -15 10 -9 0 -15
-9 -15 -25z"/>
<path d="M1850 3295 c0 -20 -5 -25 -25 -25 -16 0 -25 -6 -25 -15 0 -8 -5 -15
-11 -15 -5 0 -7 -4 -4 -10 3 -5 -6 -12 -20 -16 -21 -5 -25 -12 -25 -40 0 -24
-5 -34 -15 -34 -9 0 -15 -9 -15 -25 0 -16 -6 -25 -15 -25 -11 0 -15 -12 -15
-45 0 -25 -4 -45 -10 -45 -5 0 -10 -16 -10 -35 0 -19 5 -35 10 -35 6 0 10 -9
10 -20 0 -11 7 -20 15 -20 8 0 15 -9 15 -20 0 -11 7 -20 15 -20 8 0 15 -9 15
-20 0 -16 7 -20 30 -20 23 0 30 -4 30 -20 0 -14 7 -20 21 -20 12 0 23 -8 26
-20 3 -11 9 -20 13 -20 5 0 10 -10 12 -22 2 -15 11 -24 25 -26 15 -2 25 -13
29 -28 l6 -24 384 0 c337 0 383 2 378 15 -4 9 0 15 10 15 9 0 16 -7 16 -15 0
-8 7 -15 16 -15 10 0 14 6 10 15 -4 13 9 15 89 15 57 0 95 4 95 10 0 6 14 10
30 10 l30 0 0 135 c0 83 -4 135 -10 135 -5 0 -10 7 -10 15 0 8 -9 15 -20 15
-11 0 -20 5 -20 10 0 6 -11 10 -25 10 -16 0 -25 6 -25 15 0 8 -7 15 -15 15 -9
0 -15 9 -15 25 0 22 -5 25 -50 31 -27 4 -50 10 -50 15 0 5 -7 9 -15 9 -8 0
-15 7 -15 15 0 10 -11 15 -35 15 -31 0 -35 3 -41 35 -6 33 -8 34 -64 41 -36 4
-61 12 -64 20 -3 8 -13 14 -23 15 -16 0 -16 2 2 10 18 8 18 9 -5 8 -70 -3 -80
0 -80 26 l0 25 -280 0 -280 0 0 -25z m290 -134 c0 -28 -5 -51 -12 -53 -8 -3
-11 -59 -12 -191 l-1 -187 -52 0 c-30 0 -53 5 -55 12 -2 6 -22 17 -44 23 -28
8 -38 16 -36 28 2 12 -4 17 -21 17 -21 0 -26 6 -32 37 -7 41 -19 53 -51 53
-26 0 -34 23 -34 105 0 79 8 105 31 105 14 0 19 7 19 30 0 20 5 30 15 30 8 0
15 9 15 20 0 19 7 20 135 20 l135 0 0 -49z m670 -221 c0 -5 11 -10 25 -10 15
0 25 -6 25 -14 0 -8 7 -16 15 -20 11 -4 15 -21 15 -65 0 -68 -4 -71 -102 -71
l-58 0 0 45 c0 25 5 45 10 45 6 0 10 18 10 40 0 29 4 40 15 40 8 0 15 5 15 10
0 6 7 10 15 10 8 0 15 -4 15 -10z"/>
<path d="M4910 3043 c0 -8 -13 -13 -30 -13 -16 0 -30 -4 -30 -9 0 -5 -13 -12
-30 -16 -16 -4 -30 -10 -30 -15 0 -4 -15 -11 -34 -14 -22 -4 -37 -14 -41 -26
-7 -21 -26 -25 -104 -22 -25 1 -48 7 -52 13 -4 8 -8 7 -12 -2 -4 -10 -6 -10
-6 -1 -1 6 -8 12 -17 12 -8 0 -13 -4 -10 -8 5 -9 -32 -8 -56 2 -9 4 -26 3 -37
-4 -14 -7 -21 -7 -21 0 0 6 -25 10 -61 9 -38 -1 -56 -5 -47 -10 10 -7 9 -9 -4
-9 -10 0 -18 5 -18 10 0 6 -5 10 -11 10 -6 0 -17 7 -25 15 -9 8 -24 15 -35 15
-10 0 -19 5 -19 11 0 8 -6 7 -17 -2 -11 -10 -14 -10 -9 -1 5 9 -5 13 -41 14
-75 3 -138 -3 -141 -13 -2 -5 -10 -9 -17 -9 -7 0 -29 -15 -48 -34 -26 -25 -37
-46 -42 -80 -4 -25 -11 -46 -16 -46 -5 0 -9 -25 -9 -55 0 -30 5 -55 10 -55 6
0 10 -11 10 -25 0 -13 6 -28 14 -32 8 -4 15 -17 18 -28 2 -11 12 -21 22 -23
10 -2 29 -15 41 -28 12 -13 36 -27 53 -30 18 -4 30 -9 28 -13 -3 -4 4 -7 15
-7 13 0 22 9 26 25 10 38 35 61 61 54 18 -4 22 -13 22 -42 0 -30 5 -40 26 -51
22 -12 27 -12 35 0 8 12 12 12 16 3 2 -7 11 -13 18 -13 7 0 15 -7 19 -15 3 -8
10 -15 16 -15 6 0 8 6 4 13 -6 10 -4 10 7 0 16 -15 285 -18 291 -4 2 5 48 11
102 13 64 3 101 9 104 16 2 7 10 12 18 12 8 0 14 6 14 13 0 9 3 8 9 -2 6 -8
10 -9 12 -2 3 9 39 18 86 20 6 1 14 15 18 31 4 17 13 30 21 30 8 0 14 5 14 10
0 6 11 3 25 -6 26 -17 75 -13 75 6 0 6 5 10 11 10 20 0 69 58 69 82 0 19 2 20
10 8 7 -10 10 18 9 93 -1 59 -5 107 -10 107 -5 0 -9 7 -9 15 0 8 -4 15 -10 15
-5 0 -10 6 -10 14 0 7 -16 30 -35 50 l-35 37 -75 -3 c-41 -2 -75 -7 -75 -13 0
-5 -5 -3 -10 5 -6 10 -10 11 -10 3z m-72 -158 c4 -70 -3 -105 -21 -105 -21 0
-81 67 -67 75 6 4 10 17 8 30 -4 29 30 67 56 63 18 -3 21 -11 24 -63z m-381
49 c-3 -3 -12 -4 -19 -1 -8 3 -5 6 6 6 11 1 17 -2 13 -5z m-223 -17 c12 -9 20
-31 23 -63 5 -48 4 -49 -31 -65 -35 -16 -37 -16 -46 2 -18 32 -24 107 -10 124
15 19 40 19 64 2z m288 -52 c4 -5 5 -18 2 -27 -3 -9 0 -25 7 -36 22 -35 5 -53
-48 -50 l-48 3 -3 63 c-3 57 -1 63 20 71 23 8 55 -3 70 -24z m-665 -122 c-2
-16 -4 -5 -4 22 0 28 2 40 4 28 2 -13 2 -35 0 -50z"/>
<path d="M5600 2781 c0 -5 7 -12 16 -15 24 -9 27 -7 10 9 -17 17 -26 19 -26 6z"/>
<path d="M411 2314 c0 -11 3 -14 6 -6 3 7 2 16 -1 19 -3 4 -6 -2 -5 -13z"/>
<path d="M4653 2253 c9 -2 23 -2 30 0 6 3 -1 5 -18 5 -16 0 -22 -2 -12 -5z"/>
<path d="M1370 1610 c0 -33 4 -60 9 -60 5 0 13 -40 17 -90 l7 -90 38 0 39 0 0
-135 0 -135 -39 0 -38 0 -5 -187 c-3 -130 -8 -188 -16 -191 -7 -2 -12 -12 -12
-23 0 -10 -4 -19 -10 -19 -5 0 -10 -7 -10 -15 0 -8 -7 -15 -15 -15 -11 0 -15
-12 -15 -45 0 -41 2 -45 25 -45 18 0 25 5 25 20 0 11 4 20 9 20 5 0 11 18 15
40 6 39 7 40 46 40 39 0 40 1 40 34 0 19 5 36 11 38 17 6 18 770 2 775 -7 3
-13 18 -13 34 0 27 -2 29 -40 29 l-40 0 0 40 c0 29 -4 40 -15 40 -12 0 -15
-13 -15 -60z"/>
<path d="M3613 1264 c9 -3 17 -10 17 -15 0 -5 7 -9 16 -9 28 0 8 25 -22 27
-16 1 -21 -1 -11 -3z"/>
<path d="M4731 751 c-11 -7 -9 -14 12 -34 15 -13 27 -28 27 -32 0 -4 11 -18
24 -30 13 -12 26 -31 28 -41 2 -11 13 -20 26 -22 19 -3 22 1 22 27 0 17 -4 31
-10 31 -5 0 -10 7 -10 16 0 8 -4 13 -9 10 -5 -3 -12 6 -15 20 -4 15 -13 32
-20 40 -19 18 -58 26 -75 15z"/>
<path d="M4153 525 c-19 -21 -18 -222 1 -241 31 -30 36 -15 36 105 0 146 -7
171 -37 136z"/>
<path d="M5083 175 c-7 -8 -13 -37 -13 -65 0 -41 5 -56 25 -75 31 -32 45 -32
45 0 0 14 -4 25 -10 25 -5 0 -10 22 -10 49 0 75 -12 95 -37 66z"/>
</g>
</svg>
